<svg id="Layer_1" data-name="Layer 1" xmlns="http://www.w3.org/2000/svg" viewBox="0 0 256 256"><defs><style>.cls-1{fill:#e29e66;}.cls-2{fill:#fff;}</style></defs><title>FavIcon</title><path id="path106979" class="cls-1" d="M238.63,62.49c-11.7-18.43-28-33-48.93-43.25C168.42,9.31,144.31,4,117.36,4H0V60H114.53q31.91,0,51.05,18.08c12.77,12.41,19.51,29.08,19.51,50,0,21.27-6.74,37.94-19.51,50s-29.78,18.09-51.05,18.09H70.2V130.22H0v122H117.36c27,0,51.06-5,72.34-15.25,20.91-9.93,37.23-24.46,48.93-43.26C250,175.25,256,153.26,256,128.09,256,103.27,250,81.29,238.63,62.49Z"/><path id="path106967" class="cls-2" d="M30.75,24a14.3,14.3,0,0,0-5.89-5.21,20.51,20.51,0,0,0-8.72-1.84H2v6.75H15.8A8.61,8.61,0,0,1,22,25.86a8.06,8.06,0,0,1,2.35,6,7.9,7.9,0,0,1-2.35,6,8.61,8.61,0,0,1-6.15,2.18H10.46v-8H2v14.7H16.14A19.79,19.79,0,0,0,24.86,45a13.63,13.63,0,0,0,5.89-5.21,14.8,14.8,0,0,0,2.1-7.9A15.07,15.07,0,0,0,30.75,24Z"/><path id="path106969" class="cls-2" d="M41.83,45.69a14.41,14.41,0,0,0,6.7,1.54,14.71,14.71,0,0,0,6.75-1.54,11.41,11.41,0,0,0,6.33-10.47,11.43,11.43,0,0,0-1.67-6.15,11.64,11.64,0,0,0-4.66-4.23,14.58,14.58,0,0,0-6.75-1.54,14.38,14.38,0,0,0-6.75,1.54,11.89,11.89,0,0,0-4.65,16.58A11.45,11.45,0,0,0,41.83,45.69ZM52,39.32a4.63,4.63,0,0,1-3.51,1.45A4.49,4.49,0,0,1,45,39.32a5.67,5.67,0,0,1-1.37-4.1,5.55,5.55,0,0,1,1.37-4,4.63,4.63,0,0,1,3.5-1.45A4.78,4.78,0,0,1,52,31.2a5.72,5.72,0,0,1,1.37,4A5.85,5.85,0,0,1,52,39.32Z"/><path id="path106971" class="cls-2" d="M81.35,45.9l-2-5.68a4.16,4.16,0,0,1-2.48.73,2.27,2.27,0,0,1-1.79-.69,2.77,2.77,0,0,1-.64-2V30.61h5.29V24.54H74.43v-6H66.31v6H62.93v6.07h3.38v7.77c0,2.95.81,5.17,2.43,6.62s3.93,2.23,7,2.23a12.14,12.14,0,0,0,3.12-.35,7.89,7.89,0,0,0,2.52-1Z"/><path id="path106973" class="cls-2" d="M84.86,46.84h8.29v-5L84.86,31.25ZM105,16.93v5.43l8.29,10V16.93Zm0,15.94L91.83,16.93h-7v4l8.29,10,13.2,15.93h7V43.38L105,32.83Z"/><path id="path106975" class="cls-2" d="M143,16.93H119.33v6.54H143Zm0,11.58H119.33v6.33H143ZM119.33,40.3v6.54H143V40.3Z"/><path id="path106977" class="cls-2" d="M154.4,23.64v23.2h8.46V23.64H172V16.93H145.21v6.71Z"/><path id="path106979-2" data-name="path106979" class="cls-1" d="M30.4,90.28a13.94,13.94,0,0,0-5.75-5.08,19.82,19.82,0,0,0-8.5-1.79H2.37V90H15.82a8.41,8.41,0,0,1,6,2.12A7.85,7.85,0,0,1,24.11,98a7.73,7.73,0,0,1-2.29,5.88,8.41,8.41,0,0,1-6,2.12h-5.2V98.23H2.37v14.33H16.15a19.25,19.25,0,0,0,8.5-1.79,13.41,13.41,0,0,0,5.75-5.08,14.51,14.51,0,0,0,2-7.71A14.7,14.7,0,0,0,30.4,90.28Z"/><path id="path106981" class="cls-1" d="M59.35,103.27c.08-1.25.12-1.87.12-2a11.66,11.66,0,0,0-1.62-6.25,10.66,10.66,0,0,0-4.33-4,14.11,14.11,0,0,0-12.5.08,11.33,11.33,0,0,0-4.45,4.17,11.11,11.11,0,0,0-1.58,6,11.33,11.33,0,0,0,1.62,6,11.12,11.12,0,0,0,4.66,4.17,15.28,15.28,0,0,0,7,1.5c4.21,0,7.41-1.21,9.62-3.67l-4.17-4.33a8,8,0,0,1-2.41,1.5,7.19,7.19,0,0,1-2.79.46,6.51,6.51,0,0,1-3.62-.92,4.57,4.57,0,0,1-1.92-2.71Zm-15-7a5,5,0,0,1,6.12,0,4.89,4.89,0,0,1,1.58,2.83H42.82A4.54,4.54,0,0,1,44.36,96.28Z"/><path id="path106983" class="cls-1" d="M86.54,90H79l-5.71,13.78L67.88,90H59.76L69,112.56h8.17Z"/><path id="path106985" class="cls-1" d="M95.21,111.19a18.66,18.66,0,0,0,16.61,0,14.61,14.61,0,0,0,5.79-5.42A14.43,14.43,0,0,0,119.73,98a14.62,14.62,0,0,0-2.12-7.78,15.19,15.19,0,0,0-5.79-5.42,18.66,18.66,0,0,0-16.61,0,15.12,15.12,0,0,0-5.79,5.42A14.59,14.59,0,0,0,87.33,98a14.57,14.57,0,0,0,7.88,13.21Zm12.32-5.92a7.73,7.73,0,0,1-4,1,7.47,7.47,0,0,1-4-1,7.05,7.05,0,0,1-2.84-2.91,9.64,9.64,0,0,1,0-8.71,7.4,7.4,0,0,1,2.84-3,7.85,7.85,0,0,1,4-1,8.14,8.14,0,0,1,4,1,7.87,7.87,0,0,1,2.83,3,9.56,9.56,0,0,1,0,8.71A7.48,7.48,0,0,1,107.53,105.27Z"/><path id="path106987" class="cls-1" d="M143.46,91.07a11,11,0,0,0-5.58-1.46c-3,0-5.21.88-6.66,2.63V90h-7.54v30.65h7.91V110.56a8.36,8.36,0,0,0,6.29,2.38,11,11,0,0,0,5.58-1.42,10.74,10.74,0,0,0,4-4.08,12.29,12.29,0,0,0,1.5-6.17,12.12,12.12,0,0,0-1.5-6.12A10.74,10.74,0,0,0,143.46,91.07Zm-3.83,14.16a4.5,4.5,0,0,1-3.42,1.42,4.36,4.36,0,0,1-3.41-1.42,5.48,5.48,0,0,1-1.33-4,5.37,5.37,0,0,1,1.33-3.91,4.39,4.39,0,0,1,3.41-1.46,4.53,4.53,0,0,1,3.42,1.46,5.59,5.59,0,0,1,1.33,3.91A5.71,5.71,0,0,1,139.63,105.23Z"/><path id="path106989" class="cls-1" d="M155.26,112.31a24.67,24.67,0,0,0,5.58.63,16.57,16.57,0,0,0,6-1,8.56,8.56,0,0,0,3.83-2.63,6.34,6.34,0,0,0,1.29-3.83,5.58,5.58,0,0,0-1.37-4,7.36,7.36,0,0,0-3.17-2,44.14,44.14,0,0,0-4.62-1,19.76,19.76,0,0,1-3.17-.63c-.66-.21-.95-.58-.95-1.12s.29-.83.87-1.13a6.46,6.46,0,0,1,2.75-.45,13.44,13.44,0,0,1,6.49,1.66l2.38-5.37a15.59,15.59,0,0,0-4-1.42,24.4,24.4,0,0,0-4.87-.5,16.05,16.05,0,0,0-6,1,8.43,8.43,0,0,0-3.75,2.67,6.09,6.09,0,0,0-1.29,3.83,5.68,5.68,0,0,0,1.38,4.08,6.64,6.64,0,0,0,3.24,2,26.84,26.84,0,0,0,4.63.87,21.58,21.58,0,0,1,3.08.63c.67.21,1,.54,1,1a1.28,1.28,0,0,1-.83,1.17,7.11,7.11,0,0,1-2.71.37,16.43,16.43,0,0,1-4.21-.54,12.12,12.12,0,0,1-3.66-1.54l-2.38,5.41a13.91,13.91,0,0,0,4.42,1.71Z"/></svg>