<svg id="Layer_1" data-name="Layer 1" xmlns="http://www.w3.org/2000/svg" viewBox="0 0 256 256"><defs><style>.cls-1{fill:#f87f2e;}</style></defs><title>FavIcon1</title><path id="path106979" class="cls-1" d="M211,52.87a89,89,0,0,0-36.7-32.44C158.32,13,140.23,9,120,9H32V51h85.89q23.94,0,38.3,13.56c9.57,9.31,14.62,21.81,14.62,37.5,0,16-5.05,28.45-14.62,37.5s-22.34,13.56-38.3,13.56H84.65V103.66H32v91.48h88c20.21,0,38.3-3.72,54.25-11.43A85.51,85.51,0,0,0,211,151.27c8.51-13.83,13-30.32,13-49.2C224,83.45,219.48,67,211,52.87Z"/><path id="path106979-2" data-name="path106979" class="cls-1" d="M63.65,217.72A15.75,15.75,0,0,0,57.16,212a22.38,22.38,0,0,0-9.59-2H32v7.43H47.19a9.45,9.45,0,0,1,6.77,2.4,8.88,8.88,0,0,1,2.59,6.63A8.71,8.71,0,0,1,54,233.05a9.45,9.45,0,0,1-6.77,2.4H41.31v-8.74H32v16.17H47.57a21.81,21.81,0,0,0,9.59-2,15.1,15.1,0,0,0,6.49-5.74,16.36,16.36,0,0,0,2.3-8.7A16.63,16.63,0,0,0,63.65,217.72Z"/><path id="path106981" class="cls-1" d="M96.34,232.4c.09-1.42.14-2.12.14-2.21a13.18,13.18,0,0,0-1.83-7.06,12.06,12.06,0,0,0-4.89-4.56,15.36,15.36,0,0,0-6.92-1.6,15.11,15.11,0,0,0-7.19,1.69,12.7,12.7,0,0,0-5,4.71,12.43,12.43,0,0,0-1.79,6.72,12.78,12.78,0,0,0,1.83,6.82,12.56,12.56,0,0,0,5.27,4.7,17.23,17.23,0,0,0,7.85,1.7c4.75,0,8.37-1.37,10.87-4.14l-4.71-4.89A9.2,9.2,0,0,1,87.22,236a8,8,0,0,1-3.15.52,7.35,7.35,0,0,1-4.1-1,5.21,5.21,0,0,1-2.16-3Zm-16.93-7.9a5.65,5.65,0,0,1,6.91,0,5.53,5.53,0,0,1,1.79,3.19H77.67A5.26,5.26,0,0,1,79.41,224.5Z"/><path id="path106983" class="cls-1" d="M127,217.39h-8.51L112.08,233,106,217.39H96.8l10.49,25.49h9.21Z"/><path id="path106985" class="cls-1" d="M136.83,241.33a21,21,0,0,0,18.76,0,16.55,16.55,0,0,0,8.94-14.91,16.56,16.56,0,0,0-2.4-8.79,17,17,0,0,0-6.54-6.11,21,21,0,0,0-18.76,0,17,17,0,0,0-6.54,6.11,16.52,16.52,0,0,0-2.35,8.79,16.38,16.38,0,0,0,8.89,14.91Zm13.92-6.68a8.77,8.77,0,0,1-4.52,1.18,8.51,8.51,0,0,1-4.51-1.18,8,8,0,0,1-3.2-3.29,10.91,10.91,0,0,1,0-9.83,8.43,8.43,0,0,1,3.2-3.34,9,9,0,0,1,4.51-1.17,9.27,9.27,0,0,1,4.52,1.17,9.09,9.09,0,0,1,3.2,3.34,10.91,10.91,0,0,1,0,9.83A8.58,8.58,0,0,1,150.75,234.65Z"/><path id="path106987" class="cls-1" d="M191.32,218.62A12.49,12.49,0,0,0,185,217c-3.39,0-5.88,1-7.53,3v-2.54H169V252h8.94V240.63a9.45,9.45,0,0,0,7.1,2.68,12.46,12.46,0,0,0,6.3-1.6,12.18,12.18,0,0,0,4.51-4.61,13.88,13.88,0,0,0,1.7-7,13.64,13.64,0,0,0-1.7-6.91A12.11,12.11,0,0,0,191.32,218.62Zm-4.33,16a5.06,5.06,0,0,1-3.85,1.59,5,5,0,0,1-3.86-1.59,6.2,6.2,0,0,1-1.51-4.47,6.06,6.06,0,0,1,1.51-4.42,5,5,0,0,1,3.86-1.65,5.11,5.11,0,0,1,3.85,1.65,6.28,6.28,0,0,1,1.51,4.42A6.43,6.43,0,0,1,187,234.61Z"/><path id="path106989" class="cls-1" d="M204.64,242.6a28.17,28.17,0,0,0,6.3.71,18.35,18.35,0,0,0,6.82-1.09,9.58,9.58,0,0,0,4.33-3,7.17,7.17,0,0,0,1.46-4.32,6.25,6.25,0,0,0-1.56-4.52,8.33,8.33,0,0,0-3.57-2.26c-1.41-.37-3.15-.75-5.22-1.08a22.27,22.27,0,0,1-3.57-.7c-.76-.24-1.09-.66-1.09-1.27s.33-.94,1-1.27a7.24,7.24,0,0,1,3.11-.52A15.22,15.22,0,0,1,220,225.2l2.68-6.07a17.2,17.2,0,0,0-4.56-1.59,27,27,0,0,0-5.5-.57,18,18,0,0,0-6.73,1.13,9.42,9.42,0,0,0-4.23,3,6.87,6.87,0,0,0-1.46,4.33,6.39,6.39,0,0,0,1.56,4.6,7.45,7.45,0,0,0,3.66,2.26,31.2,31.2,0,0,0,5.22,1,24.31,24.31,0,0,1,3.48.7c.76.24,1.13.62,1.13,1.18a1.46,1.46,0,0,1-.94,1.32,8,8,0,0,1-3.06.42,18.48,18.48,0,0,1-4.75-.61,13.93,13.93,0,0,1-4.13-1.74l-2.68,6.11a15.44,15.44,0,0,0,5,1.93Z"/></svg>