<svg id="svg106959" xmlns="http://www.w3.org/2000/svg" viewBox="0 0 568.8 70.93"><defs></defs><title>Logo</title><path id="path106967" class="cls-1" d="M51.37,24.28a21.45,21.45,0,0,0-8.83-7.81,30.56,30.56,0,0,0-13.06-2.75H8.3V23.83H29a12.88,12.88,0,0,1,9.22,3.27,12,12,0,0,1,3.52,9,11.85,11.85,0,0,1-3.52,9A12.88,12.88,0,0,1,29,48.41H21V36.5H8.3v22H29.48a29.56,29.56,0,0,0,13.06-2.76A20.56,20.56,0,0,0,51.37,48,22.22,22.22,0,0,0,54.5,36.12,22.52,22.52,0,0,0,51.37,24.28Z"/><path id="path106969" class="cls-1" d="M68,56.79a21.63,21.63,0,0,0,10,2.3,22.05,22.05,0,0,0,10.11-2.3,17.06,17.06,0,0,0,9.47-15.68,17.13,17.13,0,0,0-2.49-9.21,17.7,17.7,0,0,0-7-6.34A21.92,21.92,0,0,0,78,23.26a21.52,21.52,0,0,0-10.11,2.3,17.7,17.7,0,0,0-7,6.34,17.48,17.48,0,0,0-2.49,9.21,17.4,17.4,0,0,0,2.49,9.28A17.19,17.19,0,0,0,68,56.79Zm15.3-9.54A6.89,6.89,0,0,1,78,49.43a6.7,6.7,0,0,1-5.25-2.18,8.49,8.49,0,0,1-2-6.14,8.29,8.29,0,0,1,2-6A7,7,0,0,1,78,32.92a7.18,7.18,0,0,1,5.25,2.17,8.6,8.6,0,0,1,2,6A8.8,8.8,0,0,1,83.25,47.25Z"/><path id="path106971" class="cls-1" d="M127.15,57.11l-3-8.51a6.17,6.17,0,0,1-3.71,1.09,3.42,3.42,0,0,1-2.69-1,4.16,4.16,0,0,1-1-2.94V34.2h7.94V25.11h-7.94v-9H104.62v9H99.57V34.2h5.05V45.85c0,4.41,1.22,7.74,3.65,9.91s5.89,3.33,10.43,3.33a18.53,18.53,0,0,0,4.67-.51,12,12,0,0,0,3.78-1.47Z"/><path id="path106973" class="cls-1" d="M132.41,58.52h12.42V51L132.41,35.16Zm30.21-44.8v8.13l12.41,15V13.72Zm0,23.87L142.84,13.72H132.41v6l12.42,15L164.6,58.52H175V53.33l-12.41-15.8Z"/><path id="path106975" class="cls-1" d="M219.55,13.72H184v9.79h35.52Zm0,17.34H184v9.47h35.52ZM184,48.73v9.79h35.52V48.73Z"/><path id="path106977" class="cls-1" d="M236.56,23.77V58.52h12.67V23.77h13.7v-10H222.8v10Z"/><path id="path106979" class="cls-1" d="M340.71,24.28a21.39,21.39,0,0,0-8.83-7.81,30.55,30.55,0,0,0-13.05-2.75H297.65V23.83h20.67a12.84,12.84,0,0,1,9.21,3.27,12,12,0,0,1,3.52,9,11.85,11.85,0,0,1-3.52,9,12.84,12.84,0,0,1-9.21,3.27h-8V36.5H297.65v22h21.18a29.55,29.55,0,0,0,13.05-2.76,20.5,20.5,0,0,0,8.83-7.8,22.22,22.22,0,0,0,3.14-11.84A22.52,22.52,0,0,0,340.71,24.28Z"/><path id="path106981" class="cls-1" d="M385.2,44.25c.13-1.92.19-2.88.19-3a17.92,17.92,0,0,0-2.49-9.6,16.39,16.39,0,0,0-6.66-6.21,20.75,20.75,0,0,0-9.41-2.17,20.45,20.45,0,0,0-9.79,2.3A17.38,17.38,0,0,0,350.2,32a17,17,0,0,0-2.44,9.15,17.4,17.4,0,0,0,2.5,9.28,17.06,17.06,0,0,0,7.17,6.4,23.53,23.53,0,0,0,10.68,2.3c6.47,0,11.39-1.85,14.79-5.63l-6.4-6.65a12.78,12.78,0,0,1-3.71,2.3,11,11,0,0,1-4.29.7,10,10,0,0,1-5.57-1.4A7.08,7.08,0,0,1,360,44.25Zm-23-10.75a7.72,7.72,0,0,1,9.41,0A7.49,7.49,0,0,1,374,37.85H359.79A7.11,7.11,0,0,1,362.16,33.5Z"/><path id="path106983" class="cls-1" d="M427,23.83H415.39L406.63,45l-8.32-21.18H385.83L400.1,58.52h12.54Z"/><path id="path106985" class="cls-1" d="M440.3,56.4a28.57,28.57,0,0,0,25.53,0A22.48,22.48,0,0,0,478,36.12a22.62,22.62,0,0,0-3.26-12,23.24,23.24,0,0,0-8.9-8.32,28.66,28.66,0,0,0-25.53,0,23.24,23.24,0,0,0-8.9,8.32,22.57,22.57,0,0,0-3.2,12A22.28,22.28,0,0,0,440.3,56.4Zm18.94-9.08a11.88,11.88,0,0,1-6.14,1.6,11.57,11.57,0,0,1-6.15-1.6,10.92,10.92,0,0,1-4.35-4.48,13.37,13.37,0,0,1-1.6-6.72,13.29,13.29,0,0,1,1.6-6.66A11.45,11.45,0,0,1,447,24.92a12.24,12.24,0,0,1,6.15-1.6,12.59,12.59,0,0,1,6.14,1.6,12.41,12.41,0,0,1,4.35,4.54,14.79,14.79,0,0,1,0,13.38A11.79,11.79,0,0,1,459.24,47.32Z"/><path id="path106987" class="cls-1" d="M514.45,25.5a16.9,16.9,0,0,0-8.58-2.24c-4.61,0-8,1.34-10.24,4V23.83H484.05v47.1h12.16V55.44c2.37,2.44,5.57,3.65,9.66,3.65a17,17,0,0,0,8.58-2.17,16.66,16.66,0,0,0,6.14-6.27,19,19,0,0,0,2.3-9.48,18.65,18.65,0,0,0-2.3-9.4A16.52,16.52,0,0,0,514.45,25.5Zm-5.89,21.75a6.89,6.89,0,0,1-5.25,2.18,6.72,6.72,0,0,1-5.25-2.18,8.47,8.47,0,0,1-2-6.08,8.29,8.29,0,0,1,2-6,6.8,6.8,0,0,1,5.25-2.24,7,7,0,0,1,5.25,2.24,8.56,8.56,0,0,1,2.05,6A8.75,8.75,0,0,1,508.56,47.25Z"/><path id="path106989" class="cls-1" d="M532.58,58.13a38.23,38.23,0,0,0,8.57,1,25.32,25.32,0,0,0,9.28-1.47,13.08,13.08,0,0,0,5.89-4,9.74,9.74,0,0,0,2-5.89,8.51,8.51,0,0,0-2.11-6.14,11.24,11.24,0,0,0-4.86-3.07A69.27,69.27,0,0,0,544.22,37a30.31,30.31,0,0,1-4.86-1c-1-.32-1.47-.89-1.47-1.72s.45-1.28,1.34-1.73a9.84,9.84,0,0,1,4.22-.7,20.72,20.72,0,0,1,10,2.55l3.65-8.25A23.67,23.67,0,0,0,550.88,24a37.33,37.33,0,0,0-7.49-.76,24.54,24.54,0,0,0-9.15,1.53,12.89,12.89,0,0,0-5.76,4.1,9.36,9.36,0,0,0-2,5.88,8.77,8.77,0,0,0,2.11,6.28,10.28,10.28,0,0,0,5,3.07,42.13,42.13,0,0,0,7.1,1.34,33.16,33.16,0,0,1,4.74,1c1,.32,1.53.83,1.53,1.6a1.94,1.94,0,0,1-1.28,1.79,10.7,10.7,0,0,1-4.16.58,25.17,25.17,0,0,1-6.46-.83,19.21,19.21,0,0,1-5.63-2.37l-3.65,8.32a21.15,21.15,0,0,0,6.79,2.62Z"/></svg>
