<?xml version="1.0" standalone="no"?>
<!DOCTYPE svg PUBLIC "-//W3C//DTD SVG 20010904//EN"
 "http://www.w3.org/TR/2001/REC-SVG-20010904/DTD/svg10.dtd">
<svg version="1.0" xmlns="http://www.w3.org/2000/svg"
 width="768.000000pt" height="768.000000pt" viewBox="0 0 768.000000 768.000000"
 preserveAspectRatio="xMidYMid meet">
<metadata>
Created by potrace 1.11, written by Peter Selinger 2001-2013
</metadata>
<g transform="translate(0.000000,768.000000) scale(0.100000,-0.100000)"
fill="#000000" stroke="none">
<path d="M998 7412 l-38 -3 0 -630 0 -629 23 0 c12 -1 641 -2 1397 -4 756 -1
1386 -5 1400 -8 14 -4 48 -9 75 -13 324 -40 630 -188 850 -409 310 -312 451
-744 411 -1262 -7 -99 -9 -112 -32 -229 -96 -480 -428 -863 -896 -1034 -68
-25 -235 -67 -298 -76 -25 -3 -56 -8 -70 -10 -88 -13 -232 -17 -699 -17 -289
1 -538 1 -553 1 l-28 1 0 740 c0 585 -3 740 -12 740 -16 1 -1527 1 -1551 0
-16 0 -17 -70 -15 -1372 l3 -1373 1385 1 c1238 0 1585 4 1685 18 17 3 57 7 90
11 33 3 71 7 85 10 14 2 41 6 60 9 19 2 82 14 140 26 58 11 116 23 130 26 145
29 420 121 602 201 147 65 381 194 463 255 6 4 42 31 80 59 399 293 699 697
872 1173 73 200 125 442 150 691 15 155 7 669 -12 727 -2 7 -6 36 -9 63 -6 53
-30 173 -48 240 -5 22 -12 51 -14 65 -7 40 -73 238 -111 330 -131 320 -299
570 -552 820 -341 338 -729 558 -1249 711 -76 22 -149 42 -164 44 -16 3 -56
12 -90 20 -86 19 -121 26 -223 40 -27 3 -61 8 -75 11 -14 2 -54 6 -90 10 -36
3 -76 7 -90 10 -70 12 -455 16 -1642 18 -717 0 -1320 0 -1340 -2z"/>
<path d="M4377 1404 c-1 -1 -32 -4 -68 -8 -125 -11 -237 -64 -326 -153 -94
-93 -142 -204 -144 -333 -5 -208 84 -369 256 -465 83 -46 155 -66 260 -70 116
-4 207 13 301 60 314 153 378 585 122 821 -66 61 -159 111 -243 130 -25 6
-155 21 -158 18z m88 -249 c64 -18 123 -68 155 -131 21 -42 25 -63 25 -139 0
-81 -3 -95 -29 -143 -84 -151 -291 -182 -414 -61 -89 87 -104 262 -32 371 65
97 177 136 295 103z"/>
<path d="M963 1374 c-2 -6 -2 -57 -1 -113 l3 -104 265 -1 265 -1 57 -28 c86
-42 134 -116 141 -219 8 -109 -45 -213 -133 -258 -51 -26 -85 -31 -207 -33
l-108 -1 -3 132 -3 132 -139 0 -140 0 0 -245 0 -244 293 3 c160 2 305 6 320
10 115 28 212 80 280 150 90 93 133 217 124 361 -14 232 -143 385 -376 445
-75 20 -112 22 -358 23 -188 2 -277 -1 -280 -9z"/>
<path d="M5558 1176 c-1 -2 -28 -6 -59 -9 -53 -5 -131 -35 -144 -57 -14 -22
-33 -10 -30 20 l3 30 -132 0 -131 0 1 -515 c1 -284 4 -519 8 -522 5 -5 165 -8
242 -4 21 1 22 5 22 153 0 84 1 159 1 166 1 10 9 8 29 -6 82 -58 241 -67 342
-19 132 64 207 181 215 337 7 129 -32 237 -116 319 -44 45 -129 88 -186 96
-21 3 -43 8 -50 10 -6 2 -13 2 -15 1z m8 -239 c67 -35 96 -104 82 -196 -16
-107 -75 -149 -195 -142 -28 1 -79 45 -100 85 -21 40 -21 142 0 181 43 84 132
114 213 72z"/>
<path d="M2360 1157 c-190 -53 -305 -209 -294 -399 11 -195 137 -331 339 -369
58 -11 189 -8 249 6 47 10 133 55 160 84 l26 27 -70 74 -70 74 -27 -21 c-108
-79 -296 -49 -327 54 l-7 22 273 -1 272 -1 7 25 c8 32 2 123 -13 168 -40 126
-131 215 -263 254 -55 17 -199 18 -255 3z m214 -202 c27 -18 49 -48 60 -82 l7
-23 -155 0 -156 0 15 35 c18 44 35 61 77 81 40 17 116 12 152 -11z"/>
<path d="M6228 1155 c-148 -41 -222 -121 -222 -239 1 -88 39 -153 112 -190 25
-12 94 -31 152 -40 14 -2 45 -7 70 -10 100 -16 132 -36 107 -70 -35 -47 -223
-38 -331 16 -38 19 -40 19 -52 3 -15 -20 -77 -166 -72 -168 2 -1 17 -9 33 -19
86 -47 329 -72 445 -45 173 41 264 156 231 294 -25 101 -101 149 -287 178
-132 21 -154 30 -154 61 0 58 159 70 278 22 l63 -26 9 21 c4 12 22 53 39 91
17 38 30 70 29 71 -64 53 -333 83 -450 50z"/>
<path d="M2956 1028 c30 -73 71 -171 90 -218 19 -47 65 -159 102 -250 l68
-165 140 -2 140 -2 69 167 c37 92 76 185 86 207 9 22 31 76 49 120 18 44 40
98 50 120 29 65 60 143 60 149 0 3 -58 6 -129 6 l-128 0 -18 -47 c-10 -27 -26
-66 -35 -88 -10 -22 -34 -78 -53 -125 -88 -213 -85 -206 -93 -185 -4 11 -44
114 -89 230 l-82 210 -141 3 -141 3 55 -133z"/>
</g>
</svg>
